<svg width="380" height="39" viewBox="0 0 380 39" fill="none" xmlns="http://www.w3.org/2000/svg">
<path d="M0.00927734 38.548V2.67273H16.3131C20.2125 2.67273 23.648 3.41624 26.6194 4.90325C29.4817 6.28927 31.8975 8.45102 33.5917 11.1424C35.2633 13.8253 36.1004 16.9774 36.103 20.5987C36.1056 24.22 35.2685 27.3734 33.5917 30.0589C31.8975 32.7503 29.4817 34.912 26.6194 36.2981C23.6428 37.7825 20.2073 38.526 16.3131 38.5285L0.00927734 38.548ZM8.36589 31.7785H15.9036C18.0621 31.8334 20.2021 31.368 22.1428 30.4215C23.8644 29.554 25.2915 28.1975 26.2451 26.522C27.2056 24.6912 27.7074 22.6545 27.7074 20.587C27.7074 18.5195 27.2056 16.4828 26.2451 14.652C25.284 12.9902 23.8581 11.6456 22.1428 10.7837C20.2024 9.83587 18.0624 9.36906 15.9036 9.42275H8.36589V31.7785Z" fill="#122D4D"/>
<path d="M55.4795 38.9576C52.6201 39.0219 49.788 38.3889 47.2282 37.1131C44.9429 35.9723 43.0299 34.2043 41.7129 32.0158C40.396 29.8273 39.7296 27.309 39.7919 24.7556C39.7487 22.1885 40.3951 19.6568 41.6636 17.4246C42.8955 15.2768 44.7079 13.5198 46.8928 12.3552C49.2194 11.1209 51.8206 10.4958 54.454 10.5381C56.9955 10.5104 59.5037 11.119 61.7499 12.3084C63.8893 13.4406 65.6725 15.1442 66.9011 17.2296C68.1646 19.3457 68.7963 21.8921 68.7963 24.8687C68.7963 25.1729 68.7963 25.5238 68.7456 25.9177C68.6949 26.3115 68.6793 26.6976 68.6442 27.0212H46.2533V22.3418H64.4522L61.3326 23.7262C61.3987 22.4289 61.116 21.1375 60.5138 19.9865C59.9554 18.9508 59.1214 18.0897 58.1039 17.4987C57.0085 16.8837 55.7683 16.574 54.5124 16.6018C53.2507 16.5764 52.0047 16.8858 50.9015 17.4987C49.8662 18.0861 49.0205 18.9575 48.4643 20.0099C47.8595 21.191 47.5605 22.5049 47.5947 23.8314V25.0598C47.5534 26.4673 47.9059 27.8583 48.6125 29.0763C49.2838 30.1925 50.2627 31.0915 51.4318 31.6655C52.7727 32.2933 54.2412 32.6004 55.7213 32.5624C57.0247 32.5858 58.3206 32.3595 59.5389 31.8956C60.677 31.4336 61.7141 30.7541 62.5922 29.8951L66.8465 34.5082C65.5405 35.9719 63.9061 37.1051 62.0775 37.815C59.9711 38.6132 57.7316 39.0011 55.4795 38.9576Z" fill="#122D4D"/>
<path d="M109.464 10.5575C111.481 10.5173 113.477 10.9655 115.282 11.8638C116.991 12.7495 118.38 14.1469 119.256 15.8608C120.21 17.6545 120.688 19.9539 120.691 22.759V38.548H112.693V24.0068C112.693 21.7841 112.241 20.1437 111.336 19.0857C110.431 18.0276 109.157 17.4973 107.514 17.4947C106.405 17.4684 105.308 17.7375 104.336 18.2746C103.401 18.8217 102.658 19.6461 102.211 20.6337C101.666 21.9206 101.411 23.3121 101.466 24.7087V38.5519H93.4685V24.0068C93.4685 21.7841 93.0161 20.1437 92.1115 19.0857C91.2068 18.0276 89.8991 17.4973 88.1886 17.4947C87.098 17.4741 86.0215 17.7432 85.069 18.2746C84.1282 18.8237 83.3773 19.6467 82.9165 20.6337C82.3509 21.9154 82.0842 23.3088 82.1366 24.7087V38.5519H74.1426V10.9669H81.7817V18.45L80.3428 16.2975C81.2071 14.4762 82.6253 12.9748 84.3944 12.0081C86.2364 11.0183 88.301 10.5162 90.3918 10.5497C92.7565 10.5021 95.08 11.1724 97.056 12.4721C98.9694 13.7512 100.234 15.7009 100.85 18.3214L98.0309 17.5415C98.9458 15.4309 100.485 13.651 102.441 12.4409C104.551 11.1471 106.99 10.4929 109.464 10.5575Z" fill="#122D4D"/>
<path d="M136.429 38.9574C134.541 39.0054 132.666 38.6282 130.943 37.8538C129.501 37.203 128.269 36.1649 127.382 34.8551C126.546 33.5953 126.108 32.1128 126.127 30.6007C126.099 29.0837 126.518 27.592 127.332 26.3113C128.132 25.0635 129.405 24.0977 131.149 23.414C132.894 22.7303 135.184 22.3884 138.02 22.3884H145.301V27.0054H138.839C136.959 27.0054 135.67 27.3122 134.971 27.9257C134.634 28.2076 134.365 28.5613 134.183 28.9607C134.001 29.3601 133.91 29.7952 133.918 30.2342C133.902 30.7077 134.004 31.1778 134.214 31.6023C134.425 32.0269 134.737 32.3929 135.123 32.6675C135.926 33.268 137.01 33.5644 138.379 33.5644C139.661 33.5871 140.925 33.2696 142.044 32.6441C143.128 32.0195 143.941 31.0148 144.326 29.8247L145.554 33.5644C145.01 35.2299 143.881 36.6417 142.376 37.538C140.839 38.4868 138.857 38.96 136.429 38.9574ZM144.836 38.5479V33.1627L144.326 31.9929V22.3455C144.326 20.6376 143.806 19.3052 142.766 18.3486C141.726 17.3919 140.128 16.9135 137.973 16.9135C136.502 16.9135 135.04 17.1465 133.641 17.6038C132.322 18.0163 131.083 18.6492 129.976 19.4755L127.156 13.8875C128.798 12.7305 130.64 11.887 132.588 11.3997C134.696 10.8395 136.868 10.5564 139.05 10.5574C143.253 10.5574 146.517 11.5478 148.841 13.5288C151.165 15.5097 152.327 18.6033 152.327 22.8096V38.5479H144.836Z" fill="#122D4D"/>
<path d="M176.313 10.5575C178.346 10.5215 180.359 10.9692 182.186 11.8639C183.922 12.7457 185.345 14.1413 186.261 15.8608C187.251 17.6546 187.746 19.954 187.746 22.759V38.5481H179.748V24.0069C179.748 21.7842 179.262 20.1438 178.29 19.0857C177.318 18.0277 175.941 17.4973 174.16 17.4947C172.973 17.4763 171.801 17.7594 170.752 18.3175C169.749 18.8686 168.934 19.7081 168.413 20.7274C167.851 21.7855 167.569 23.1867 167.566 24.9311V38.5793H159.549V10.967H167.188V18.6061L165.753 16.2976C166.712 14.4846 168.195 13.0022 170.008 12.0432C171.952 11.0294 174.12 10.5187 176.313 10.5575Z" fill="#122D4D"/>
<path d="M207.022 38.9575C204.567 38.9932 202.147 38.3826 200.003 37.1872C197.936 36.027 196.232 34.3151 195.081 32.2426C193.902 29.9237 193.288 27.359 193.288 24.7575C193.288 22.1561 193.902 19.5914 195.081 17.2725C196.228 15.1937 197.931 13.475 199.999 12.3084C202.144 11.1162 204.564 10.5071 207.018 10.5419C209.153 10.4929 211.263 11.0239 213.12 12.0783C214.926 13.1765 216.341 14.813 217.168 16.7577C218.127 18.8374 218.606 21.5034 218.603 24.7556C218.601 28.0078 218.139 30.6737 217.219 32.7534C216.438 34.7027 215.045 36.3451 213.249 37.4328C211.348 38.4903 209.197 39.017 207.022 38.9575ZM208.371 32.3947C209.625 32.4143 210.861 32.1051 211.958 31.4978C213.04 30.8791 213.921 29.9628 214.497 28.8578C215.153 27.592 215.479 26.181 215.445 24.7556C215.487 23.3294 215.161 21.9164 214.497 20.6533C213.909 19.571 213.03 18.6753 211.958 18.068C210.863 17.4576 209.625 17.1469 208.371 17.1672C207.133 17.1518 205.913 17.4625 204.834 18.068C203.763 18.6753 202.883 19.571 202.295 20.6533C201.633 21.9167 201.308 23.3297 201.352 24.7556C201.317 26.181 201.643 27.592 202.299 28.8578C202.875 29.9628 203.756 30.8791 204.838 31.4978C205.917 32.0998 207.135 32.4089 208.371 32.3947ZM215.651 38.5481V32.9094L215.803 24.7205L215.292 16.5705V0.508545H223.29V38.5481H215.651Z" fill="#122D4D"/>
<path d="M242.807 38.9575C240.141 38.9694 237.49 38.5453 234.961 37.7019C232.465 36.8622 230.5 35.7769 229.065 34.4458L230.964 30.4488C232.512 31.7493 234.284 32.7563 236.193 33.4203C238.315 34.2057 240.56 34.602 242.822 34.5901C244.541 34.6448 246.256 34.4021 247.892 33.8726C249.023 33.5145 250.022 32.8276 250.762 31.8994C251.372 31.0784 251.697 30.0799 251.686 29.0567C251.708 28.5037 251.612 27.9523 251.404 27.4393C251.196 26.9263 250.882 26.4634 250.481 26.0814C249.576 25.2691 248.514 24.6495 247.362 24.2604C245.979 23.771 244.567 23.3685 243.134 23.0554C241.593 22.7174 240.046 22.3158 238.494 21.8505C237.009 21.4312 235.575 20.8465 234.22 20.1074C232.957 19.4144 231.885 18.4189 231.101 17.2101C230.321 15.9986 229.931 14.4388 229.931 12.5307C229.92 10.7261 230.426 8.95625 231.389 7.43014C232.364 5.87035 233.868 4.62252 235.901 3.68664C237.934 2.75076 240.523 2.28153 243.669 2.27893C245.764 2.28015 247.849 2.55544 249.873 3.09781C251.77 3.5765 253.573 4.37425 255.203 5.457L253.511 9.55927C252.021 8.55387 250.375 7.80031 248.641 7.32875C247.021 6.87762 245.349 6.64421 243.669 6.63465C241.978 6.58599 240.292 6.85039 238.697 7.41455C237.567 7.80364 236.577 8.51707 235.85 9.46569C235.258 10.3062 234.944 11.3114 234.953 12.3396C234.927 12.9001 235.021 13.4598 235.229 13.981C235.437 14.5023 235.754 14.973 236.158 15.3617C237.061 16.1721 238.124 16.7833 239.278 17.1555C240.666 17.6306 242.078 18.0328 243.509 18.3604C245.045 18.7192 246.592 19.1208 248.149 19.5654C249.639 19.9681 251.077 20.5426 252.435 21.2772C253.685 21.9693 254.749 22.9541 255.535 24.1473C256.315 25.3431 256.705 26.8821 256.705 28.7643C256.714 30.5627 256.198 32.3247 255.219 33.8336C254.229 35.3934 252.7 36.6399 250.633 37.5732C248.566 38.5065 245.958 38.9679 242.807 38.9575Z" fill="#122D4D"/>
<path d="M275.563 38.856C272.899 38.912 270.263 38.2951 267.901 37.0622C265.765 35.9314 263.989 34.2254 262.773 32.1372C261.534 29.9518 260.907 27.4735 260.956 24.9621C260.905 22.4507 261.514 19.9699 262.722 17.7675C263.865 15.7199 265.55 14.0267 267.592 12.8737C269.738 11.7162 272.137 11.1079 274.575 11.1031C277.013 11.0984 279.414 11.6973 281.564 12.8464C283.576 14.0084 285.22 15.714 286.306 17.7675C287.489 20.0352 288.079 22.5651 288.022 25.122C288.022 25.3287 288.022 25.5665 287.999 25.8395C287.975 26.1125 287.952 26.3698 287.921 26.6194H264.8V23.0826H285.355L283.358 24.3148C283.421 22.6872 283.049 21.0722 282.282 19.6354C281.559 18.2988 280.479 17.1891 279.162 16.43C277.757 15.6723 276.185 15.2757 274.588 15.2757C272.991 15.2757 271.42 15.6723 270.014 16.43C268.691 17.1906 267.609 18.3099 266.894 19.6588C266.127 21.1181 265.74 22.7479 265.771 24.3967V25.2195C265.743 26.9179 266.177 28.5921 267.027 30.0627C267.859 31.4759 269.076 32.6229 270.537 33.3694C272.141 34.1765 273.919 34.5781 275.715 34.5393C277.216 34.5591 278.706 34.2807 280.098 33.7204C281.421 33.1696 282.603 32.3287 283.557 31.2598L286.287 34.4379C285.039 35.8893 283.459 37.0172 281.681 37.7251C279.736 38.5001 277.657 38.8844 275.563 38.856Z" fill="#122D4D"/>
<path d="M309.368 11.1385C311.399 11.0965 313.411 11.5362 315.24 12.4214C316.934 13.2801 318.321 14.6423 319.21 16.3209C320.169 18.0653 320.649 20.275 320.649 22.9501V38.587H315.724V23.4765C315.724 20.8457 315.084 18.8634 313.805 17.5298C312.526 16.1962 310.722 15.5293 308.393 15.5293C306.811 15.493 305.244 15.8451 303.83 16.5549C302.542 17.2275 301.494 18.2835 300.832 19.577C300.085 21.1265 299.725 22.8338 299.783 24.5528V38.548H294.842V11.3764H299.556V18.7074L298.777 16.7577C299.672 14.9755 301.108 13.522 302.879 12.6047C304.885 11.5803 307.116 11.0762 309.368 11.1385Z" fill="#122D4D"/>
<path d="M337.545 38.8562C335.367 38.8671 333.198 38.5556 331.111 37.932C329.393 37.4683 327.771 36.7053 326.319 35.6781L328.37 31.7786C329.698 32.6452 331.142 33.3187 332.659 33.779C334.349 34.3221 336.113 34.5984 337.888 34.5979C340.176 34.5979 341.826 34.2742 342.837 33.6269C343.31 33.3485 343.7 32.9485 343.966 32.4685C344.232 31.9885 344.364 31.4459 344.35 30.8973C344.367 30.5142 344.292 30.1326 344.132 29.7844C343.971 29.4363 343.729 29.1319 343.426 28.8968C342.7 28.3696 341.871 28.0028 340.992 27.8206C339.981 27.584 338.861 27.3709 337.631 27.1811C336.403 26.9939 335.17 26.7521 333.942 26.4636C332.768 26.1927 331.631 25.7788 330.557 25.2313C329.558 24.7249 328.71 23.9652 328.097 23.0281C327.481 22.087 327.173 20.8314 327.173 19.2612C327.146 17.7115 327.632 16.1964 328.557 14.9523C329.571 13.6549 330.931 12.6696 332.48 12.1095C334.408 11.4014 336.451 11.0615 338.504 11.1074C340.326 11.1132 342.141 11.3278 343.913 11.7469C345.505 12.0789 347.025 12.6958 348.397 13.568L346.296 17.4674C345.128 16.6741 343.825 16.1018 342.451 15.779C341.14 15.4728 339.799 15.3171 338.454 15.3149C336.301 15.3149 334.691 15.6659 333.634 16.3678C332.577 17.0697 332.043 17.9666 332.043 19.0584C332.02 19.463 332.094 19.8673 332.259 20.2372C332.425 20.6071 332.677 20.9317 332.994 21.1837C333.727 21.7362 334.564 22.1341 335.455 22.3535C336.56 22.6502 337.681 22.882 338.813 23.0476C340.041 23.2348 341.273 23.4727 342.501 23.7651C343.665 24.029 344.793 24.4337 345.859 24.9701C346.85 25.4658 347.699 26.2068 348.323 27.1226C348.955 28.0468 349.271 29.2751 349.271 30.8154C349.302 32.3573 348.795 33.8617 347.836 35.0697C346.761 36.3474 345.361 37.3119 343.784 37.8618C341.782 38.5686 339.668 38.9055 337.545 38.8562Z" fill="#122D4D"/>
<path d="M367.536 38.856C364.872 38.912 362.236 38.295 359.874 37.0622C357.737 35.9324 355.961 34.2261 354.746 32.1371C353.506 29.9522 352.877 27.4738 352.925 24.9621C352.876 22.4554 353.486 19.9798 354.695 17.7831C355.837 15.7346 357.522 14.0411 359.565 12.8893C361.71 11.7317 364.109 11.1234 366.546 11.1187C368.983 11.1139 371.384 11.7128 373.533 12.862C375.543 14.0198 377.186 15.7198 378.275 17.7675C379.461 20.0341 380.053 22.5645 379.995 25.122C379.995 25.3286 379.995 25.5665 379.968 25.8395C379.94 26.1124 379.925 26.3698 379.89 26.6194H356.77V23.0825H377.328L375.327 24.3148C375.393 22.6868 375.022 21.0708 374.251 19.6354C373.527 18.2992 372.447 17.1897 371.131 16.43C369.725 15.6723 368.153 15.2756 366.555 15.2756C364.958 15.2756 363.386 15.6723 361.979 16.43C360.657 17.1916 359.575 18.3107 358.86 19.6588C358.09 21.1188 357.702 22.7502 357.733 24.4006V25.2233C357.704 26.9218 358.138 28.596 358.988 30.0665C359.82 31.4797 361.038 32.6267 362.498 33.3733C364.101 34.1803 365.878 34.582 367.673 34.5431C369.173 34.5638 370.663 34.2854 372.056 33.7242C373.38 33.1745 374.564 32.3335 375.518 31.2637L378.248 34.4417C377.003 35.8874 375.429 37.0122 373.658 37.7212C371.712 38.4976 369.632 38.8832 367.536 38.856Z" fill="#122D4D"/>
</svg>
