<svg width="48" height="58" viewBox="0 0 48 58" fill="none" xmlns="http://www.w3.org/2000/svg">
<path d="M19.0066 0.169122H18.7844V18.0483H19.0066C20.4392 18.0097 21.865 18.2584 23.1998 18.78C24.5347 19.3015 25.7515 20.0852 26.7784 21.0848C27.8053 22.0844 28.6215 23.2796 29.1789 24.5999C29.7362 25.9202 30.0234 27.3388 30.0234 28.7719C30.0234 30.205 29.7362 31.6235 29.1789 32.9438C28.6215 34.2641 27.8053 35.4593 26.7784 36.4589C25.7515 37.4585 24.5347 38.2422 23.1998 38.7638C21.865 39.2853 20.4392 39.5341 19.0066 39.4955H18.7844V57.3746H19.0066C22.7912 57.4188 26.5468 56.7116 30.0561 55.2939C33.5653 53.8762 36.7583 51.7762 39.4502 49.1156C42.142 46.4551 44.2791 43.2868 45.7377 39.7943C47.1962 36.3019 47.9473 32.5547 47.9473 28.7699C47.9473 24.9851 47.1962 21.238 45.7377 17.7455C44.2791 14.2531 42.142 11.0848 39.4502 8.42423C36.7583 5.76365 33.5653 3.66368 30.0561 2.24597C26.5468 0.828274 22.7912 0.121031 19.0066 0.165219V0.169122Z" fill="#122D4D"/>
<path d="M18.7844 18.0643L0.000549316 0.169495V57.492L18.7844 39.3516V18.0643Z" fill="#FA8C16"/>
</svg>
